<svg xmlns="http://www.w3.org/2000/svg" data-name="Layer 1" viewBox="0 0 100 125" x="0px" y="0px"><title>Artboard 139</title><path d="M50.2,2.85A46.48,46.48,0,0,0,17.46,15.74,45.65,45.65,0,0,0,3.38,47.38C3.33,48.85,4,50,5,50s1.75-1.08,1.85-2.42l0-.38A42.12,42.12,0,0,1,21.24,19.31a41.4,41.4,0,0,1,29.16-10A40.75,40.75,0,0,1,50,90.71a41.44,41.44,0,0,1-29-10.3,42.08,42.08,0,0,1-14.13-28h0C6.74,51.06,5.91,50,5,50s-1.66,1.13-1.64,2.62V53A45.77,45.77,0,0,0,17.73,84.55,46.77,46.77,0,0,0,83.25,83,47.19,47.19,0,0,0,83,16.73,46.76,46.76,0,0,0,50.2,2.85Z"/><path d="M54.43,52.35a34,34,0,0,1,3.2-1.83,14.93,14.93,0,0,0,6.28-8.08,15.14,15.14,0,0,0-7.35-18A15,15,0,0,0,46.43,23c-6.86,1.38-11.66,8-11.15,14.3h0c0,.4.76.7,1.69.69s1.71-.24,1.75-.52l0-.08a9.94,9.94,0,0,1,8.82-8.07A8.94,8.94,0,0,1,53.9,45.24c-.19.17-.4.29-.6.45l-1,.68A15.14,15.14,0,0,0,50.38,48a13.43,13.43,0,0,0-2.78,4.25,11.56,11.56,0,0,0-.84,5c.11,1.5.28,2.74.44,4.13h0c.06.34.83.6,1.77.6s1.71-.26,1.77-.6v-.1l.47-4a7.3,7.3,0,0,1,1.13-2.81A8.58,8.58,0,0,1,54.43,52.35Z"/><circle cx="48.97" cy="73.91" r="4"/></svg>
